<svg width="13" height="9" viewBox="0 0 13 9" fill="none" xmlns="http://www.w3.org/2000/svg">
<path d="M8.62012 8.31982L8.07324 7.77295C7.96387 7.63623 7.96387 7.44482 8.10059 7.30811L10.2881 5.17529L0.881836 5.17529C0.69043 5.17529 0.553711 5.03857 0.553711 4.84717L0.553711 4.08154C0.553711 3.91748 0.69043 3.75342 0.881836 3.75342L10.2881 3.75342L8.10059 1.64795C7.96387 1.51123 7.96387 1.31982 8.07324 1.18311L8.62012 0.63623C8.75684 0.526855 8.94824 0.526855 9.08496 0.63623L12.6943 4.24561C12.8037 4.38232 12.8037 4.57373 12.6943 4.71045L9.08496 8.31982C8.94824 8.4292 8.75684 8.4292 8.62012 8.31982Z" fill="#272727"/>
</svg>
