<svg width="13" height="9" viewBox="0 0 13 9" fill="none" xmlns="http://www.w3.org/2000/svg">
<path d="M4.37988 8.31982L4.92676 7.77295C5.03613 7.63623 5.03613 7.44482 4.89941 7.30811L2.71191 5.17529L12.1182 5.17529C12.3096 5.17529 12.4463 5.03857 12.4463 4.84717L12.4463 4.08154C12.4463 3.91748 12.3096 3.75342 12.1182 3.75342L2.71191 3.75342L4.89941 1.64795C5.03613 1.51123 5.03613 1.31982 4.92676 1.18311L4.37988 0.63623C4.24316 0.526855 4.05176 0.526855 3.91504 0.63623L0.305664 4.24561C0.196289 4.38232 0.196289 4.57373 0.305664 4.71045L3.91504 8.31982C4.05176 8.4292 4.24316 8.4292 4.37988 8.31982Z" fill="#272727"/>
</svg>
