<svg width="26" height="23" viewBox="0 0 26 23" fill="none" xmlns="http://www.w3.org/2000/svg">
<path d="M24.3008 3.5H6.8125L6.42578 1.60938C6.33984 1.13672 5.91016 0.75 5.4375 0.75H1.14062C0.839844 0.75 0.625 1.00781 0.625 1.26562V2.29688C0.625 2.59766 0.839844 2.8125 1.14062 2.8125H4.57812L7.54297 18.1094C7.07031 18.625 6.8125 19.2695 6.8125 20C6.8125 21.5469 8.01562 22.75 9.5625 22.75C11.0664 22.75 12.3125 21.5469 12.3125 20C12.3125 19.6133 12.1406 19.0117 11.9258 18.625H18.1562C17.9414 19.0117 17.8125 19.6133 17.8125 20C17.8125 21.5469 19.0156 22.75 20.5625 22.75C22.0664 22.75 23.3125 21.5469 23.3125 20C23.3125 19.2266 22.9688 18.5391 22.4531 18.0234L22.4961 17.8516C22.625 17.207 22.1523 16.5625 21.4648 16.5625H9.34766L8.96094 14.5H22.3672C22.8828 14.5 23.2695 14.1992 23.3984 13.7266L25.332 4.78906C25.4609 4.14453 24.9883 3.5 24.3008 3.5ZM9.5625 21.0312C8.96094 21.0312 8.53125 20.6016 8.53125 20C8.53125 19.4414 8.96094 18.9688 9.5625 18.9688C10.1211 18.9688 10.5938 19.4414 10.5938 20C10.5938 20.6016 10.1211 21.0312 9.5625 21.0312ZM20.5625 21.0312C19.9609 21.0312 19.5312 20.6016 19.5312 20C19.5312 19.4414 19.9609 18.9688 20.5625 18.9688C21.1211 18.9688 21.5938 19.4414 21.5938 20C21.5938 20.6016 21.1211 21.0312 20.5625 21.0312ZM21.5508 12.4375H8.53125L7.19922 5.5625H23.0547L21.5508 12.4375Z" fill="white"/>
</svg>
