<svg width="47" height="68" viewBox="0 0 47 68" fill="none" xmlns="http://www.w3.org/2000/svg">
<path fill-rule="evenodd" clip-rule="evenodd" d="M22.6354 0.224751C21.319 0.686383 20.2373 1.8783 19.9596 3.17289C19.8802 3.54342 19.8152 4.6022 19.8152 5.52573V7.20482L19.5159 6.9238C18.6392 6.10081 16.8604 5.84187 15.6997 6.3684C14.9262 6.71938 13.0538 8.62309 12.6338 9.48584C12.37 10.0275 12.3091 10.3606 12.3054 11.2813C12.2982 13.073 12.4583 13.3185 16.0798 17.0667C20.4725 21.6129 20.3403 21.2662 20.3445 28.2549C20.3466 31.6029 20.3881 32.6432 20.5363 33.0632C20.6403 33.3581 21.2488 34.7208 21.8883 36.0914C22.9228 38.3078 23.0514 38.6675 23.0514 39.3413C23.0514 40.2808 22.6452 41.1782 21.9644 41.7423C21.3522 42.2497 20.2289 42.592 19.5713 42.4718C18.8439 42.339 18.0161 41.8038 17.6656 41.24L17.3548 40.7401L17.2875 32.3613C17.2264 24.7605 17.1987 23.9366 16.9885 23.4887C16.64 22.746 15.9943 22.0784 15.2388 21.6798C14.5713 21.3275 14.5259 21.3225 11.9684 21.3225C9.06214 21.3225 8.83631 21.3743 7.85054 22.2648C6.87514 23.1459 6.72805 23.5792 6.67259 25.7325L6.62405 27.6153L6.16242 27.302C5.64732 26.9524 4.73869 26.7717 4.05455 26.8827C3.23609 27.0156 2.68814 27.3825 1.55794 28.555C0.326386 29.8325 -0.00238099 30.4933 1.29523e-05 31.6867C0.00253989 32.9909 0.29101 33.3695 4.42096 37.4882C8.9612 42.0159 8.95402 42.005 9.24993 44.8256C9.45648 46.7958 9.55569 47.1682 10.2078 48.4249C10.9007 49.7602 11.8689 50.6469 14.741 52.5768C19.2228 55.5882 19.4162 55.9582 19.4162 61.5197C19.4162 65.2157 19.4624 65.4894 20.1888 66.1005C20.6717 66.507 23.4432 67.4268 25.2016 67.7641C26.045 67.9259 27.0925 67.9954 28.7484 67.9991C31.0558 68.0043 31.1045 67.9986 31.4416 67.682C31.8483 67.3 31.8885 66.7654 31.5427 66.3383C31.3089 66.0496 31.2155 66.0383 28.8495 66.0141C26.1146 65.986 24.6008 65.742 22.5416 64.9968L21.4112 64.5878V63.3168V62.0457L23.3064 62.135C26.1892 62.2706 33.9372 61.8619 35.808 61.4755L36.1738 61.3999V62.991V64.5821L35.4378 64.8808C35.0329 65.0451 34.6439 65.2875 34.5733 65.4195C34.2233 66.0735 34.6278 66.8847 35.3104 66.8971C36.3678 66.9164 37.9195 65.9206 38.0967 65.1093C38.1323 64.946 38.1814 63.6454 38.2057 62.219C38.2566 59.2349 38.3769 58.7625 39.4408 57.3647C40.4921 55.9836 40.6257 55.6463 40.6276 54.3722C40.629 53.372 40.5848 53.1617 40.2436 52.5459C40.0315 52.1633 39.5951 51.6108 39.2737 51.3184C38.9522 51.0258 38.5982 50.5683 38.4867 50.3015C38.0742 49.3142 38.1504 49.1843 42.2089 43.961C44.2721 41.3056 46.0915 38.8538 46.252 38.5124C47.0265 36.8648 47.002 35.0918 46.1814 33.374C45.6779 32.32 42.5324 29.1745 41.4784 28.671C39.6402 27.793 37.788 27.8327 36.0313 28.7881C35.6107 29.0168 34.7457 29.7657 33.8686 30.6601C33.0647 31.48 32.3568 32.1199 32.2955 32.082C32.1194 31.9732 32.1651 30.6721 32.3814 29.6446C32.8546 27.3945 33.9033 25.4558 35.6668 23.5701C36.8261 22.3303 37.1746 21.5908 37.1645 20.3916C37.1554 19.3178 36.7999 18.5787 35.7328 17.4158C34.3544 15.9138 34.2694 15.602 34.1835 11.7271C34.119 8.81368 34.0888 8.48943 33.859 8.23594C33.489 7.82764 32.8094 7.86209 32.4596 8.30683C32.308 8.49954 32.1839 8.73893 32.1839 8.83881C32.1839 9.08792 30.5003 9.0806 28.9215 8.82445C27.011 8.51457 25.4657 8.01264 23.5723 7.08658L21.8101 6.22476L21.8131 4.99587C21.8165 3.55087 22.0676 2.85037 22.7588 2.35735C23.2065 2.03803 23.2073 2.03803 27.0206 2.03803C30.6651 2.03803 30.8507 2.05026 31.2017 2.31227C31.8091 2.76579 32.0619 3.21332 32.173 4.03245C32.3382 5.24923 33.1389 5.68347 33.8698 4.95265C34.184 4.63838 34.2078 4.5385 34.1473 3.78507C34.0332 2.36307 33.181 1.10559 31.8514 0.397381L31.1864 0.0430775L27.263 0.0104933C23.7297 -0.019032 23.2695 0.00238049 22.6354 0.224751ZM18.3972 8.61711C18.7484 8.90731 19.2437 9.18381 19.4977 9.23142C20.0292 9.33117 20.9853 9.01836 21.3369 8.62988C21.5544 8.38968 21.6035 8.40166 22.9159 9.0161C25.5124 10.2314 27.8797 10.8429 30.4882 10.9717L32.1839 11.0555V12.8016V14.5477L30.7542 14.7883C27.7406 15.2953 24.8177 16.176 21.7483 17.5018L20.0239 18.2466L17.3107 15.4622C15.8186 13.9307 14.5149 12.4852 14.4135 12.2498C14.1792 11.7053 14.1784 10.9932 14.4117 10.4458C14.5118 10.2104 15.0441 9.58386 15.5944 9.0536C16.5258 8.15601 16.6351 8.08938 17.1768 8.08938C17.6588 8.08938 17.8681 8.17982 18.3972 8.61711ZM33.0567 17.1498C33.2468 17.5247 33.7825 18.2362 34.2472 18.7311C35.5824 20.1527 35.5608 20.8845 34.1425 22.2901L33.31 23.1152L30.2533 23.1688C27.1465 23.2232 25.8942 23.3621 23.6189 23.9044C22.9679 24.0595 22.4126 24.1639 22.385 24.1362C22.3573 24.1086 22.2808 23.6136 22.215 23.0363C22.0961 21.9938 21.8212 20.9979 21.4561 20.2861L21.2655 19.9148L22.4171 19.3827C25.0188 18.1808 29.951 16.7762 32.6139 16.4791C32.6675 16.4731 32.8668 16.7749 33.0567 17.1498ZM14.2168 23.4247C14.9119 23.6683 15.5419 24.7231 15.0946 24.8947C14.6602 25.0615 10.6378 25.2772 9.66422 25.186C8.72021 25.0974 8.64347 25.0676 8.64347 24.7888C8.64347 24.3135 9.20206 23.6004 9.7121 23.4247C9.98035 23.3324 10.9234 23.266 11.9684 23.266C13.0177 23.266 13.952 23.332 14.2168 23.4247ZM31.9179 25.1838C31.9179 25.2229 31.7575 25.567 31.5615 25.9486C31.3654 26.3301 31.043 27.1191 30.8453 27.7016C30.4371 28.9032 30.6857 28.7512 28.2239 29.3061C26.7257 29.6438 23.4021 30.1608 22.7043 30.1647L22.3351 30.1668L22.3718 28.2196L22.4086 26.2724L22.9882 26.1015C23.8213 25.8557 26.2778 25.378 27.3465 25.2541C28.3981 25.132 31.9179 25.078 31.9179 25.1838ZM15.2933 28.506V30.0372L14.5286 30.5265C11.8366 32.2492 8.22932 33.622 4.99697 34.1539L4.07703 34.3053L3.10229 33.3371C1.60954 31.8543 1.61087 31.3025 3.11094 29.8011C4.22997 28.6811 4.51459 28.6124 5.43825 29.2382C6.85772 30.2001 8.64254 29.2932 8.6432 27.6097L8.64347 27.1142L10.0732 27.1842C10.8595 27.2228 12.1014 27.1998 12.8329 27.1332C13.5643 27.0667 14.4171 27.0038 14.7281 26.9935L15.2933 26.9749V28.506ZM40.2584 30.3216C40.9083 30.5646 41.2785 30.8597 42.6356 32.2168C44.011 33.5924 44.2862 33.9394 44.5429 34.6222C44.7702 35.2272 44.8303 35.62 44.7914 36.2464C44.7632 36.7007 44.7049 37.1077 44.6618 37.1508C44.5458 37.2669 42.5547 36.0573 40.8329 34.8248C39.3782 33.7834 37.2368 32.0151 36.5972 31.3268L36.2892 30.9954L36.709 30.6966C37.6754 30.0083 39.0361 29.8647 40.2584 30.3216ZM30.1889 31.7095C30.1889 32.9527 30.7481 33.7361 31.8531 34.0412C32.5984 34.2469 33.3199 33.9717 34.1654 33.1594L34.9025 32.4509L35.8132 33.3101C37.6071 35.0023 40.787 37.3609 42.7961 38.4894C43.1769 38.7031 43.4883 38.9279 43.4885 38.9888C43.4886 39.0496 43.2662 39.3787 42.9945 39.7203C42.7228 40.0617 42.4854 40.364 42.4671 40.3919C42.4487 40.4199 41.7783 40.1981 40.9772 39.8991C36.7522 38.3218 31.7269 37.3556 26.5972 37.1343L24.535 37.0454L23.5098 34.8363C22.9459 33.6213 22.4675 32.5434 22.4467 32.4408C22.417 32.2956 22.9228 32.1843 24.7266 31.9389C26.0015 31.7653 27.6474 31.4828 28.384 31.3109C30.3072 30.8621 30.1889 30.8359 30.1889 31.7095ZM15.2362 37.982C15.2019 38.0164 13.7043 38.2315 11.9081 38.46L8.64241 38.8756L7.24155 37.4746L5.8407 36.0737L7.47483 35.6601C9.66807 35.105 11.4933 34.4135 13.5323 33.3654L15.2268 32.4943L15.2628 35.2069C15.2827 36.6988 15.2707 37.9475 15.2362 37.982ZM30.3219 39.4209C32.5327 39.6818 33.8713 39.9316 36.1073 40.5005C37.6886 40.9029 40.9276 41.9276 41.0737 42.0718C41.0987 42.0964 40.3209 43.1436 39.3454 44.3988L37.5716 46.6809L36.9059 46.6048C34.9631 46.3825 30.0728 46.2311 26.6891 46.2884C23.1241 46.3488 22.832 46.372 22.4997 46.6189C22.0301 46.9679 21.9455 47.6959 22.3335 48.0472C22.5862 48.2757 22.9771 48.2935 28.2916 48.318C31.4198 48.3323 34.5248 48.3922 35.1915 48.4508L36.4037 48.5576L36.3884 49.3702C36.3801 49.8172 36.4209 50.4073 36.479 50.6816C36.577 51.1437 36.5624 51.1803 36.2795 51.1807C35.7794 51.1814 30.9482 52.3047 28.6595 52.9525C26.382 53.5971 24.1265 54.3236 22.0554 55.0798L20.7713 55.5486L20.3013 54.7872C19.5447 53.5615 18.6383 52.7606 16.0191 51.0034C13.183 49.1009 13.1591 49.3354 16.2243 48.9852C18.7313 48.6987 18.8668 48.6708 19.1577 48.3799C19.4925 48.0451 19.489 47.3962 19.1502 47.0574C18.9558 46.863 18.7069 46.7914 18.2252 46.7914C17.727 46.7914 12.8845 47.346 12.0475 47.499C11.7944 47.5452 11.3341 45.9376 11.2374 44.6691C11.1243 43.186 10.8987 42.2459 10.4377 41.3363C10.2453 40.9563 10.1657 40.6736 10.2514 40.6736C10.4317 40.6736 14.4101 40.1669 14.9276 40.078C15.2437 40.0238 15.2933 40.0593 15.2933 40.3394C15.2933 40.8267 15.783 42.0381 16.2283 42.653C16.7762 43.4093 17.8484 44.0833 18.9272 44.3496C19.7055 44.5417 19.9582 44.5502 20.7205 44.4096C23.0309 43.9839 24.6353 42.3402 25.0212 40.003L25.1792 39.046L26.9193 39.1353C27.8764 39.1844 29.4076 39.313 30.3219 39.4209ZM38.4613 53.4413C38.8809 54.2049 38.7346 55.0076 38.0069 55.9351C37.3322 56.795 36.672 58.0318 36.4524 58.8473C36.2822 59.4793 36.4494 59.4302 33.3702 59.7517C30.5047 60.0509 25.6087 60.2411 23.3729 60.1402L21.4112 60.0516L21.4093 59.0407C21.4084 58.4846 21.3736 57.9032 21.3322 57.7488C21.2788 57.5502 21.3282 57.4461 21.5001 57.3938C21.6341 57.3531 22.8808 56.9216 24.2706 56.4351C26.8991 55.5151 29.918 54.6216 32.3987 54.0298C34.7078 53.4788 37.5426 52.921 37.888 52.9494C38.099 52.967 38.2915 53.132 38.4613 53.4413Z" fill="white"/>
</svg>
