<svg width="32" height="33" viewBox="0 0 32 33" fill="none" xmlns="http://www.w3.org/2000/svg">
<path d="M27.3125 0.00195312H4.6875C2.10303 0.00195312 0 2.10498 0 4.68945V27.3145C0 29.8989 2.10303 32.002 4.6875 32.002H27.3125C29.897 32.002 32 29.8989 32 27.3145V4.68945C32 2.10498 29.897 0.00195312 27.3125 0.00195312ZM16.0625 24.377C11.4099 24.377 7.625 20.592 7.625 15.9395C7.625 11.2869 11.4099 7.50195 16.0625 7.50195C20.7151 7.50195 24.5 11.2869 24.5 15.9395C24.5 20.592 20.7151 24.377 16.0625 24.377ZM25.4375 9.37695C23.8867 9.37695 22.625 8.11523 22.625 6.56445C22.625 5.01367 23.8867 3.75195 25.4375 3.75195C26.9883 3.75195 28.25 5.01367 28.25 6.56445C28.25 8.11523 26.9883 9.37695 25.4375 9.37695Z" fill="#5F7B87"/>
</svg>
