<svg width="57" height="64" viewBox="0 0 57 64" fill="none" xmlns="http://www.w3.org/2000/svg">
<mask id="path-1-inside-1_819_1423" fill="white">
<path fill-rule="evenodd" clip-rule="evenodd" d="M13.553 0.19715C12.2661 0.372297 9.28893 1.1614 9.06278 1.38743C8.93251 1.51769 8.887 5.13253 9.00014 6.37506L9.06265 7.06177L8.18754 7.15766C6.35231 7.35881 4.1404 8.0624 2.49932 8.96714C1.23166 9.66598 0.000250689 10.5451 6.56996e-07 10.7514C-0.000749438 11.147 0.640957 13.3072 1.06876 14.3491C2.53582 17.9225 5.07502 20.6828 8.50008 22.4272C12.133 24.2776 15.9359 24.7203 19.7986 23.7424C20.3402 23.6052 20.8066 23.5164 20.8351 23.5447C20.8635 23.5732 20.7643 24.0852 20.6144 24.6826C20.4586 25.304 20.3896 25.8107 20.4531 25.8668C20.5141 25.9208 21.0564 26.0941 21.658 26.2518L22.7519 26.5389L22.7529 33.9908C22.7535 38.1498 22.8095 41.9399 22.8797 42.5679C23.867 51.4037 28.8127 58.4494 37.4333 63.3009L38.6753 64L39.621 63.4833C46.5463 59.699 51.1847 54.4479 53.3116 47.9841C54.4989 44.3759 54.6309 42.959 54.6309 33.8184V26.5331L55.7716 26.237C56.3989 26.0741 56.9372 25.876 56.9679 25.797C57.0897 25.4816 56.2108 22.8604 55.5068 21.4402C53.97 18.3395 51.6998 15.9645 48.6927 14.3113C45.9182 12.786 43.085 10.4271 41.098 7.98814L40.6292 7.41269V3.70635V0H38.6914H36.7537V3.71922V7.43844L35.585 8.75111C34.9423 9.47308 34.2994 10.1673 34.1563 10.2938C33.9006 10.5201 33.8929 10.5171 33.6827 10.1063C33.184 9.13191 31.8834 7.39969 30.7759 6.23492C26.3317 1.56095 19.9563 -0.674086 13.553 0.19715ZM19.3423 4.06102C24.0201 4.96188 28.2325 7.99176 30.4496 12.0503C30.9924 13.0442 31.0666 12.8959 29.5835 13.7831C28.8542 14.2194 28.6909 14.2733 28.4857 14.1453C28.1925 13.9621 16.2413 4.63771 15.626 4.11202L15.1884 3.7381L16.7511 3.80048C17.6106 3.83486 18.7766 3.95213 19.3423 4.06102ZM18.913 11.4862C22.1589 14.0219 24.9549 16.2107 25.1263 16.3502L25.4381 16.6037L24.7268 17.3342C24.3356 17.736 23.8389 18.2898 23.6229 18.5649C23.407 18.8399 23.2092 19.0863 23.1833 19.1123C23.1574 19.1384 22.5576 18.8766 21.8503 18.5306C18.6556 16.9678 16.0052 14.3594 14.3776 11.1769C13.7411 9.93226 12.7314 6.87587 12.9568 6.87587C12.9868 6.87587 15.667 8.95051 18.913 11.4862ZM10.7467 12.3371C11.1639 13.2092 11.8678 14.4672 12.3108 15.1327C13.2531 16.5481 15.0728 18.5081 16.4282 19.5677L17.3843 20.3151L16.9283 20.3547C15.8085 20.4521 12.8693 19.5694 10.6275 18.4623C7.75461 17.0438 5.37318 14.8521 4.50582 12.8288L4.27017 12.2791L5.10377 11.8968C6.18054 11.4029 7.60472 11.0178 8.83487 10.8879C9.37269 10.8311 9.85225 10.7771 9.90051 10.768C9.94876 10.7589 10.3296 11.465 10.7467 12.3371ZM38.6914 16.8146H40.5667L40.6292 14.959L40.6917 13.1034L41.5668 13.8784C42.8913 15.0515 44.3795 16.1352 45.8592 17.0042C49.0205 18.8608 50.0301 19.7338 51.3745 21.7735L52.1436 22.9404L50.9595 22.976C49.5934 23.0172 47.6822 22.6788 46.3799 22.1651C45.933 21.9888 45.0168 21.4864 44.344 21.0485C43.6713 20.6107 43.0712 20.2526 43.0105 20.2526C42.9497 20.2526 42.7193 20.7953 42.4983 21.4585C41.7393 23.7368 40.5944 25.5667 39.2737 26.6128L38.7592 27.0203L38.2083 26.5599C37.5365 25.9982 36.9284 25.2812 36.3277 24.3422C35.8089 23.5311 35.776 23.4559 35.0725 21.4686L34.5515 19.9968L33.476 20.7423C31.2463 22.288 29.5735 22.8479 26.8232 22.9693L25.2063 23.0407L25.5634 22.428C26.1568 21.4095 26.8773 20.4836 27.7433 19.6269C28.6191 18.7603 29.3063 18.2803 31.4622 17.0295C33.0032 16.1357 34.3012 15.1946 35.714 13.947L36.6912 13.0842L36.7537 14.9494L36.8162 16.8146H38.6914ZM30.1636 34.8482C30.223 43.9032 30.2465 44.3061 30.9328 48.0172C31.3137 50.077 31.8337 52.124 32.422 53.88C32.6635 54.6008 32.845 55.2068 32.8253 55.2265C32.8057 55.2463 32.3777 54.7688 31.8744 54.1657C28.9383 50.6473 27.1519 46.4817 26.633 41.9428C26.5599 41.3027 26.504 37.7857 26.5034 33.7855L26.5024 26.7534L27.2212 26.7455C27.6165 26.7413 28.362 26.6639 28.8777 26.5737C29.3934 26.4836 29.8812 26.4027 29.9617 26.3941C30.0718 26.3822 30.1218 28.4791 30.1636 34.8482ZM48.4426 26.5676C49.0615 26.6693 49.8632 26.7526 50.2241 26.7529L50.8805 26.7534V33.6967C50.8805 37.7737 50.8255 41.1411 50.7471 41.8539C50.29 46.0142 48.7737 49.8601 46.3065 53.1165C45.2256 54.5433 44.3224 55.5493 44.4408 55.1945C44.4866 55.057 44.665 54.527 44.8372 54.0169C45.3235 52.5755 46.0817 49.4799 46.3706 47.7561C46.9735 44.1584 47.025 43.2184 47.0921 34.5981C47.1274 30.0772 47.1925 26.3793 47.2369 26.3805C47.2813 26.3817 47.8238 26.4659 48.4426 26.5676ZM37.3751 30.6141C38.0263 31.0348 38.6478 31.379 38.756 31.379C39.2777 31.379 42.2422 29.2138 42.8547 28.3854C43.01 28.1753 43.1915 28.0036 43.2582 28.0036C43.4153 28.0036 43.4141 37.6529 43.2566 41.1517C43.0231 46.3384 42.188 50.6222 40.6408 54.5694C39.9817 56.2509 38.8959 58.3984 38.6899 58.428C38.5094 58.4539 37.3305 56.1284 36.6339 54.3719C35.8573 52.4142 35.225 50.2354 34.7487 47.8763C34.0229 44.2817 33.9781 43.6017 33.9144 35.2296L33.8558 27.5162L35.0234 28.6828C35.7263 29.3849 36.6624 30.1537 37.3751 30.6141Z"/>
</mask>
<path fill-rule="evenodd" clip-rule="evenodd" d="M13.553 0.19715C12.2661 0.372297 9.28893 1.1614 9.06278 1.38743C8.93251 1.51769 8.887 5.13253 9.00014 6.37506L9.06265 7.06177L8.18754 7.15766C6.35231 7.35881 4.1404 8.0624 2.49932 8.96714C1.23166 9.66598 0.000250689 10.5451 6.56996e-07 10.7514C-0.000749438 11.147 0.640957 13.3072 1.06876 14.3491C2.53582 17.9225 5.07502 20.6828 8.50008 22.4272C12.133 24.2776 15.9359 24.7203 19.7986 23.7424C20.3402 23.6052 20.8066 23.5164 20.8351 23.5447C20.8635 23.5732 20.7643 24.0852 20.6144 24.6826C20.4586 25.304 20.3896 25.8107 20.4531 25.8668C20.5141 25.9208 21.0564 26.0941 21.658 26.2518L22.7519 26.5389L22.7529 33.9908C22.7535 38.1498 22.8095 41.9399 22.8797 42.5679C23.867 51.4037 28.8127 58.4494 37.4333 63.3009L38.6753 64L39.621 63.4833C46.5463 59.699 51.1847 54.4479 53.3116 47.9841C54.4989 44.3759 54.6309 42.959 54.6309 33.8184V26.5331L55.7716 26.237C56.3989 26.0741 56.9372 25.876 56.9679 25.797C57.0897 25.4816 56.2108 22.8604 55.5068 21.4402C53.97 18.3395 51.6998 15.9645 48.6927 14.3113C45.9182 12.786 43.085 10.4271 41.098 7.98814L40.6292 7.41269V3.70635V0H38.6914H36.7537V3.71922V7.43844L35.585 8.75111C34.9423 9.47308 34.2994 10.1673 34.1563 10.2938C33.9006 10.5201 33.8929 10.5171 33.6827 10.1063C33.184 9.13191 31.8834 7.39969 30.7759 6.23492C26.3317 1.56095 19.9563 -0.674086 13.553 0.19715ZM19.3423 4.06102C24.0201 4.96188 28.2325 7.99176 30.4496 12.0503C30.9924 13.0442 31.0666 12.8959 29.5835 13.7831C28.8542 14.2194 28.6909 14.2733 28.4857 14.1453C28.1925 13.9621 16.2413 4.63771 15.626 4.11202L15.1884 3.7381L16.7511 3.80048C17.6106 3.83486 18.7766 3.95213 19.3423 4.06102ZM18.913 11.4862C22.1589 14.0219 24.9549 16.2107 25.1263 16.3502L25.4381 16.6037L24.7268 17.3342C24.3356 17.736 23.8389 18.2898 23.6229 18.5649C23.407 18.8399 23.2092 19.0863 23.1833 19.1123C23.1574 19.1384 22.5576 18.8766 21.8503 18.5306C18.6556 16.9678 16.0052 14.3594 14.3776 11.1769C13.7411 9.93226 12.7314 6.87587 12.9568 6.87587C12.9868 6.87587 15.667 8.95051 18.913 11.4862ZM10.7467 12.3371C11.1639 13.2092 11.8678 14.4672 12.3108 15.1327C13.2531 16.5481 15.0728 18.5081 16.4282 19.5677L17.3843 20.3151L16.9283 20.3547C15.8085 20.4521 12.8693 19.5694 10.6275 18.4623C7.75461 17.0438 5.37318 14.8521 4.50582 12.8288L4.27017 12.2791L5.10377 11.8968C6.18054 11.4029 7.60472 11.0178 8.83487 10.8879C9.37269 10.8311 9.85225 10.7771 9.90051 10.768C9.94876 10.7589 10.3296 11.465 10.7467 12.3371ZM38.6914 16.8146H40.5667L40.6292 14.959L40.6917 13.1034L41.5668 13.8784C42.8913 15.0515 44.3795 16.1352 45.8592 17.0042C49.0205 18.8608 50.0301 19.7338 51.3745 21.7735L52.1436 22.9404L50.9595 22.976C49.5934 23.0172 47.6822 22.6788 46.3799 22.1651C45.933 21.9888 45.0168 21.4864 44.344 21.0485C43.6713 20.6107 43.0712 20.2526 43.0105 20.2526C42.9497 20.2526 42.7193 20.7953 42.4983 21.4585C41.7393 23.7368 40.5944 25.5667 39.2737 26.6128L38.7592 27.0203L38.2083 26.5599C37.5365 25.9982 36.9284 25.2812 36.3277 24.3422C35.8089 23.5311 35.776 23.4559 35.0725 21.4686L34.5515 19.9968L33.476 20.7423C31.2463 22.288 29.5735 22.8479 26.8232 22.9693L25.2063 23.0407L25.5634 22.428C26.1568 21.4095 26.8773 20.4836 27.7433 19.6269C28.6191 18.7603 29.3063 18.2803 31.4622 17.0295C33.0032 16.1357 34.3012 15.1946 35.714 13.947L36.6912 13.0842L36.7537 14.9494L36.8162 16.8146H38.6914ZM30.1636 34.8482C30.223 43.9032 30.2465 44.3061 30.9328 48.0172C31.3137 50.077 31.8337 52.124 32.422 53.88C32.6635 54.6008 32.845 55.2068 32.8253 55.2265C32.8057 55.2463 32.3777 54.7688 31.8744 54.1657C28.9383 50.6473 27.1519 46.4817 26.633 41.9428C26.5599 41.3027 26.504 37.7857 26.5034 33.7855L26.5024 26.7534L27.2212 26.7455C27.6165 26.7413 28.362 26.6639 28.8777 26.5737C29.3934 26.4836 29.8812 26.4027 29.9617 26.3941C30.0718 26.3822 30.1218 28.4791 30.1636 34.8482ZM48.4426 26.5676C49.0615 26.6693 49.8632 26.7526 50.2241 26.7529L50.8805 26.7534V33.6967C50.8805 37.7737 50.8255 41.1411 50.7471 41.8539C50.29 46.0142 48.7737 49.8601 46.3065 53.1165C45.2256 54.5433 44.3224 55.5493 44.4408 55.1945C44.4866 55.057 44.665 54.527 44.8372 54.0169C45.3235 52.5755 46.0817 49.4799 46.3706 47.7561C46.9735 44.1584 47.025 43.2184 47.0921 34.5981C47.1274 30.0772 47.1925 26.3793 47.2369 26.3805C47.2813 26.3817 47.8238 26.4659 48.4426 26.5676ZM37.3751 30.6141C38.0263 31.0348 38.6478 31.379 38.756 31.379C39.2777 31.379 42.2422 29.2138 42.8547 28.3854C43.01 28.1753 43.1915 28.0036 43.2582 28.0036C43.4153 28.0036 43.4141 37.6529 43.2566 41.1517C43.0231 46.3384 42.188 50.6222 40.6408 54.5694C39.9817 56.2509 38.8959 58.3984 38.6899 58.428C38.5094 58.4539 37.3305 56.1284 36.6339 54.3719C35.8573 52.4142 35.225 50.2354 34.7487 47.8763C34.0229 44.2817 33.9781 43.6017 33.9144 35.2296L33.8558 27.5162L35.0234 28.6828C35.7263 29.3849 36.6624 30.1537 37.3751 30.6141Z" fill="white" stroke="#272727" stroke-width="1.6" mask="url(#path-1-inside-1_819_1423)"/>
</svg>
