<svg width="108" height="23" viewBox="0 0 108 23" fill="none" xmlns="http://www.w3.org/2000/svg">
<path fill-rule="evenodd" clip-rule="evenodd" d="M53.5933 0.153307C53.5283 0.274969 53.4751 1.06931 53.4751 1.91969C53.4751 3.66124 53.4539 3.69507 52.7481 3.08448C52.5061 2.87522 52.1226 2.6066 51.8957 2.48779C51.6689 2.36897 51.3046 2.16859 51.086 2.04249C48.189 0.371683 44.1046 1.22321 41.3731 4.06735C37.416 8.1878 37.2277 16.1825 40.9934 20.1857C44.1985 23.5929 49.4852 23.9587 52.7131 20.9967C53.4154 20.3523 53.4751 20.3932 53.4751 21.5186C53.4751 22.4261 53.4907 22.4885 53.7312 22.5471C54.3462 22.6972 61.4989 22.5502 61.4989 22.3876C61.4989 22.1848 61.2694 22.0637 60.7176 21.9749C60.1708 21.887 59.2991 21.0498 59.0587 20.3816C58.9228 20.0036 58.8881 18.4245 58.8556 11.1216L58.8163 2.31725L58.5284 2.20767C58.3699 2.14741 58.0903 2.09808 57.9068 2.09808C57.1262 2.09808 55.0192 1.08172 54.5077 0.458374C54.1762 0.0543138 53.7264 -0.0957138 53.5933 0.153307ZM7.24753 0.266653C6.71808 0.683471 5.17695 1.31354 4.02381 1.58443C3.58563 1.68741 3.04787 1.81728 2.82878 1.87298C2.6097 1.92869 1.9439 2.03622 1.34923 2.11198C-0.123839 2.29948 -0.451504 2.64955 0.668633 2.83888C1.61839 2.9995 2.29888 3.75693 2.56178 4.94598C2.75799 5.83327 2.76334 19.1112 2.56793 19.9369C2.29034 21.1092 1.38997 22.0334 0.525572 22.0334C0.209174 22.0334 -0.077518 22.298 0.0373183 22.484C0.11767 22.6141 10.5867 22.6601 10.7157 22.5311C10.8886 22.3579 10.5477 22.0607 10.109 22.0017C9.51558 21.9221 8.81131 21.459 8.55489 20.9801C8.08917 20.11 8.07438 19.8477 8.06914 12.401L8.06413 5.21778L9.11689 4.52757C13.3307 1.76488 14.9227 1.25533 15.5048 2.48335C15.7724 3.0478 15.7269 19.6303 15.4557 20.3816C15.2143 21.0503 14.3428 21.8871 13.7962 21.9749C13.2444 22.0637 13.015 22.1848 13.015 22.3876C13.015 22.5499 22.8883 22.6991 23.5166 22.5463C23.9394 22.4435 23.6484 22.0776 23.0836 22.0017C22.4081 21.911 21.8274 21.4763 21.4354 20.768L21.0956 20.1538L21.0623 12.6923L21.029 5.23077L22.0866 4.53155C24.0479 3.23485 24.8811 2.75344 26.2171 2.14501C26.9109 1.82913 28.0525 1.85043 28.3229 2.1842C28.7661 2.73157 28.8321 19.3716 28.3952 20.4386C28.1139 21.1256 27.2959 21.8918 26.751 21.9787C26.2187 22.0636 25.9895 22.1866 25.9895 22.3876C25.9895 22.6088 36.6421 22.6263 36.7157 22.4052C36.766 22.2543 36.5233 22.1345 35.7372 21.9228C35.1499 21.7647 34.6547 21.2919 34.316 20.5666C34.0729 20.0458 34.0695 19.9444 34.0076 11.6101C33.9642 5.76675 33.9048 3.04005 33.814 2.72325C32.697 -1.17108 29.3959 -0.838446 22.1958 3.89374C21.0793 4.6277 21.053 4.61733 20.9167 3.39114C20.8619 2.89925 20.7575 2.36863 20.6844 2.212C20.2647 1.31206 20.1489 1.13652 19.7868 0.849789C17.7734 -0.744124 14.6192 0.201607 8.84431 4.13068C8.04137 4.67691 8.06413 4.72612 8.06413 2.44917C8.06413 -0.0991313 7.98401 -0.31318 7.24753 0.266653ZM70.4255 0.24911C69.3234 1.08582 66.1088 2.02164 63.6044 2.23501C62.9356 2.29197 63.058 2.67404 63.7983 2.84093C65.7759 3.28668 65.8813 3.77367 65.8787 12.4569C65.8761 21.0009 65.704 21.7877 63.7903 22.0035C63.2995 22.0589 63.0648 22.2603 63.2124 22.4993C63.2493 22.5591 65.5137 22.603 68.5699 22.603H73.8633L73.827 22.3477C73.7969 22.1372 73.6946 22.0787 73.2433 22.0145C72.3399 21.8857 71.7858 21.34 71.3538 20.1538C71.1864 19.6938 71.0108 6.06441 71.1645 5.45165C71.3038 4.89609 75.7164 2.26702 77.0119 1.96776C78.8764 1.53693 78.7919 1.14347 78.8325 10.4419C78.8791 21.0881 78.7799 21.6424 76.7618 22.0198C76.2339 22.1186 75.9603 22.3165 76.081 22.5121C76.1686 22.6539 86.6803 22.6263 86.7682 22.484C86.8938 22.2806 86.611 22.0656 86.1332 22.0015C85.5214 21.9194 85.0102 21.5073 84.5997 20.7655L84.2612 20.1538L84.1891 11.724C84.1159 3.18188 84.093 2.75982 83.6543 1.85259C82.6335 -0.258044 80.4468 -0.480067 76.9773 1.17468C75.9168 1.68046 72.0975 3.9581 71.6608 4.34519C71.1899 4.76246 71.1229 4.51583 71.09 2.24651C71.0562 -0.0877404 71.0185 -0.201087 70.4255 0.24911ZM96.8327 0.151142C91.8538 0.855371 88.6119 5.3186 88.5926 11.4962C88.5856 13.7041 88.7674 14.8752 89.3352 16.2806C90.665 19.5719 92.8834 21.6217 96.2904 22.707C97.459 23.0792 100.465 23.0904 101.147 22.725C101.272 22.6579 101.478 22.603 101.603 22.603C103.644 22.603 107.841 17.5473 107.874 15.0477C107.878 14.7999 107.544 14.8272 107.422 15.0845C107.378 15.1785 107.245 15.4604 107.126 15.711C105.668 18.8016 103.495 20.1489 100.441 19.8569C97.8083 19.6052 95.454 17.506 94.5775 14.6288C94.5107 14.4096 94.3997 14.0507 94.3309 13.8314C94.1004 13.0978 93.8784 11.2995 93.8784 10.1676V9.04696H100.807C108.739 9.04696 108.054 9.15324 107.933 7.94152C107.423 2.84549 102.452 -0.64365 96.8327 0.151142ZM99.3625 0.728354C101.352 1.34339 102.334 3.35697 102.599 7.3667L102.672 8.47738H98.2754H93.8784V7.73043C93.8784 2.6942 96.187 -0.253374 99.3625 0.728354ZM49.9572 2.25848C50.8919 2.48232 52.0019 3.05008 52.7853 3.70521L53.4751 4.28219V11.9748V19.6675L52.9914 20.1216C47.7039 25.0868 42.7446 19.9452 43.7376 10.5279C43.9182 8.81457 43.9648 8.55473 44.329 7.2243C45.3538 3.47988 47.4252 1.65233 49.9572 2.25848Z" fill="white"/>
</svg>
