<svg width="23" height="23" viewBox="0 0 23 23" fill="none" xmlns="http://www.w3.org/2000/svg">
<path d="M22.3281 20.9023L17.1289 15.7031C17 15.6172 16.8711 15.5312 16.7422 15.5312H16.1836C17.5156 13.9844 18.375 11.9219 18.375 9.6875C18.375 4.78906 14.3359 0.75 9.4375 0.75C4.49609 0.75 0.5 4.78906 0.5 9.6875C0.5 14.6289 4.49609 18.625 9.4375 18.625C11.6719 18.625 13.6914 17.8086 15.2812 16.4766V17.0352C15.2812 17.1641 15.3242 17.293 15.4102 17.4219L20.6094 22.6211C20.8242 22.8359 21.168 22.8359 21.3398 22.6211L22.3281 21.6328C22.543 21.4609 22.543 21.1172 22.3281 20.9023ZM9.4375 16.5625C5.61328 16.5625 2.5625 13.5117 2.5625 9.6875C2.5625 5.90625 5.61328 2.8125 9.4375 2.8125C13.2188 2.8125 16.3125 5.90625 16.3125 9.6875C16.3125 13.5117 13.2188 16.5625 9.4375 16.5625Z" fill="white"/>
</svg>
