<svg width="56" height="64" viewBox="0 0 56 64" fill="none" xmlns="http://www.w3.org/2000/svg">
<path fill-rule="evenodd" clip-rule="evenodd" d="M35.4844 0.176209C33.1895 0.674016 29.9493 2.13464 27.4889 3.78052C23.7264 6.29734 19.585 10.4363 17.6005 13.6629C17.1684 14.3655 16.7741 14.9398 16.7243 14.939C16.6745 14.9383 16.2113 14.6595 15.695 14.3196C13.4875 12.8658 10.0303 11.3838 8.72547 11.3319C8.07045 11.3057 7.76553 11.5232 6.64299 12.8169C3.37764 16.5803 1.15372 22.19 0.218442 29.0222C-0.595673 34.9696 0.898999 42.6117 4.14795 49.1122C5.09625 51.0097 6.05781 52.3925 7.45673 53.8704C8.70206 55.186 9.70731 55.954 11.0011 56.5781C13.2995 57.6868 14.9063 57.7005 18.3332 56.6404C19.1197 56.3972 20.2583 56.0605 20.8633 55.8923L21.9637 55.5865L22.4096 56.2922C23.3217 57.7358 24.3515 58.56 26.9737 59.9452C27.8958 60.4324 29.5797 61.3878 30.7156 62.0686C33.4661 63.7171 34.2893 64.0025 36.2857 64C37.6811 63.9982 37.878 63.9666 39.0593 63.5542C42.1068 62.4902 44.9913 60.2569 47.5267 56.998C49.5666 54.3762 51.6914 50.8005 52.8824 47.9857C54.2912 44.656 54.8317 42.6342 55.2751 39.0359C55.5095 37.1322 55.4722 31.8293 55.2122 30.1297C54.9712 28.5532 54.2415 25.2671 54.1325 25.2671C54.0907 25.2671 53.7014 25.5543 53.2675 25.9054C52.8336 26.2564 52.4471 26.5121 52.4085 26.4736C52.3699 26.435 52.1313 25.9365 51.8781 25.3658C51.625 24.7952 51.2158 24.0128 50.9689 23.6274C50.553 22.9782 50.4771 22.9207 49.9394 22.847C49.6201 22.8032 48.938 22.8031 48.4237 22.8465C47.8964 22.8911 47.4894 22.8765 47.4904 22.8133C47.4914 22.7516 47.6311 22.2541 47.8008 21.7076C47.9706 21.1612 48.0831 20.6878 48.0508 20.6556C48.0038 20.6084 45.4052 21.2449 44.2835 21.5785C44.0234 21.6559 44.0192 21.6251 43.9483 19.1123C43.8353 15.1047 43.3311 12.0629 42.2212 8.69149C41.2397 5.71041 39.6963 2.78228 38.1581 0.983815C37.2424 -0.0871516 37.0148 -0.155871 35.4844 0.176209ZM37.48 4.25805C39.5307 7.45493 40.8694 11.737 41.355 16.6525C41.501 18.1299 41.5445 22.2176 41.4175 22.5133C41.373 22.6166 40.6791 23.0257 39.8752 23.4227C36.1548 25.2594 31.7246 28.5546 29.6419 31.0342C27.6091 33.4544 25.9902 35.8646 24.5615 38.5978C24.0936 39.4928 23.7097 40.1528 23.7085 40.0646C23.7071 39.9763 23.8506 38.9343 24.0274 37.7489C24.9692 31.4328 26.3189 25.8436 28.2769 20.1518C29.223 17.4015 29.2501 17.0518 28.5496 16.6247C28.0101 16.2958 27.5549 16.3172 27.109 16.6923C26.2794 17.3904 23.8549 25.3611 22.5958 31.5298C22.0891 34.0123 21.4031 38.1775 21.2535 39.6802C21.1372 40.8474 21.1335 40.8507 20.1869 40.5943C16.6512 39.6369 15.0643 37.6758 14.573 33.6568C14.3039 31.4553 14.4608 29.4738 15.1484 26.3936C15.8288 23.3451 16.6588 20.9911 18.1273 17.9445C19.3309 15.4479 20.0554 14.2764 21.3959 12.6591C24.4359 8.99191 28.026 6.02797 31.5918 4.24165C33.7196 3.17569 33.7098 3.17607 33.0466 4.2011C32.7414 4.67312 32.0356 5.87376 31.4784 6.86912C30.3496 8.88551 30.2676 9.24137 30.7893 9.86135C31.0512 10.1725 31.209 10.2465 31.6112 10.2465C32.3274 10.2465 32.5269 10.0942 33.0474 9.14962C34.5715 6.38396 36.5655 3.2369 36.7938 3.2369C36.8108 3.2369 37.1196 3.6964 37.48 4.25805ZM10.0853 14.2411C11.6798 14.7673 15.5622 16.9492 15.5678 17.3222C15.569 17.393 15.3152 18.0295 15.0039 18.7367C13.8885 21.2713 12.8954 24.6418 12.287 27.9583C11.9233 29.9405 11.9033 33.0037 12.2419 34.8427C12.7236 37.4579 13.6639 39.3965 15.1042 40.744C16.0543 41.6326 17.2135 42.2572 18.8869 42.7823C19.8719 43.0912 22.0055 43.8688 22.172 43.9793C22.1888 43.9906 22.0352 44.4949 21.8307 45.1C21.3037 46.659 21.0503 48.5135 21.0687 50.6769C21.0771 51.6751 21.0967 52.6546 21.1121 52.8536C21.1393 53.2076 21.1151 53.2225 19.9508 53.5591C19.2968 53.7482 18.0858 54.1103 17.2597 54.3639C14.7825 55.1241 13.5446 55.0925 11.8113 54.2255C10.7373 53.6882 9.1349 52.2082 7.98145 50.6884C6.16521 48.2952 4.15671 43.3636 3.25911 39.0936C2.23984 34.2451 2.21968 31.1474 3.17637 26.3879C3.52898 24.6337 4.35623 21.652 4.5321 21.5015C4.57891 21.4615 5.31254 21.3625 6.16233 21.2816C7.98733 21.1079 10.1164 20.6882 10.5228 20.4218C10.6816 20.3177 10.8744 20.0226 10.9514 19.766C11.0667 19.3813 11.0543 19.2284 10.8813 18.8938C10.5536 18.2601 10.0528 18.112 8.99409 18.3358C7.84726 18.5783 5.7723 18.8908 5.71159 18.8303C5.45386 18.5724 8.75701 13.7845 9.10461 13.9121C9.18384 13.9412 9.6252 14.0893 10.0853 14.2411ZM41.7267 32.277C40.2798 36.7072 39.1115 40.3726 39.1304 40.4224C39.1493 40.4721 42.1782 38.0734 45.8613 35.0918C52.2726 29.9017 52.5617 29.6844 52.6465 29.9929C53.0778 31.5622 53.0707 37.049 52.6333 40.0373C52.3264 42.1353 52.2252 42.5873 51.7334 44.0573C49.8464 49.698 45.8418 56.0302 42.4199 58.7841C40.2424 60.5365 38.351 61.4297 36.588 61.5381C35.0332 61.6337 34.2835 61.3457 31.2163 59.4742C30.4246 58.9911 29.1009 58.2413 28.2747 57.8081C27.4486 57.3748 26.4263 56.7771 26.003 56.4798C23.8069 54.9379 23.0835 52.2038 23.7226 47.8605C23.9001 46.6535 24.1278 45.8902 24.917 43.855C26.5415 39.6658 28.6202 36.137 31.459 32.7496C33.3946 30.4399 37.3558 27.4692 40.8615 25.6982C41.993 25.1265 44.2635 24.1427 44.327 24.1964C44.3437 24.2105 43.1735 27.8468 41.7267 32.277ZM49.5225 26.2371C50.019 27.317 50.2836 28.0866 50.221 28.2687C50.1814 28.3845 44.0724 33.3946 44.0216 33.353C44.0079 33.3419 44.5712 31.5884 45.2733 29.4563L46.5498 25.58L47.4885 25.4382C49.1403 25.1886 49.0181 25.1405 49.5225 26.2371ZM36.2987 31.8363C35.0019 32.5309 32.6231 34.6439 31.1629 36.3981C28.3105 39.8249 26.5241 44.1333 26.2501 48.2458C26.1752 49.3712 26.178 49.386 26.5404 49.7917C27.154 50.4783 28.1862 50.318 28.5357 49.4817C28.6331 49.2485 28.7128 48.838 28.7128 48.5694C28.7128 47.1565 29.4874 44.1815 30.3275 42.3671C31.7198 39.3606 34.1866 36.3798 36.9414 34.3749C37.9101 33.6699 38.1564 33.3014 38.0475 32.7208C37.8964 31.9155 36.9986 31.4614 36.2987 31.8363Z" fill="white"/>
</svg>
