<svg width="32" height="28" viewBox="0 0 32 28" fill="none" xmlns="http://www.w3.org/2000/svg">
<path d="M11.9382 27.1295C10.5544 27.1295 9.13009 27.0174 7.69724 26.7928C5.17356 26.3968 2.61889 25.0768 1.89599 24.6815L0 23.6449L2.05273 22.9698C4.29661 22.2321 5.6616 21.7743 7.35129 21.0575C5.6594 20.2382 4.35545 18.7643 3.72777 16.859L3.25023 15.4093L3.64183 15.4691C3.27049 15.0949 2.97728 14.715 2.74999 14.3695C1.94164 13.1418 1.51367 11.6415 1.60473 10.3559L1.69457 9.09051L2.45214 9.38396C2.13256 8.78045 1.9016 8.13592 1.76586 7.46039C1.43505 5.81293 1.71191 4.0627 2.54564 2.53218L3.20555 1.32076L4.08812 2.38082C6.87937 5.73383 10.4148 7.72284 14.6108 8.30511C14.4394 7.12372 14.5678 5.98359 14.9929 4.96162C15.4877 3.77168 16.3681 2.76265 17.538 2.04342C18.8373 1.24484 20.413 0.857874 21.9748 0.953821C23.6317 1.05563 25.1361 1.67647 26.331 2.75045C26.9144 2.59883 27.3444 2.43697 27.9254 2.21822C28.275 2.08663 28.6715 1.93722 29.1676 1.76632L30.9957 1.13644L29.8036 4.54121C29.8822 4.53462 29.9633 4.529 30.048 4.52534L32.0001 4.43696L30.8463 6.01386C30.7802 6.10419 30.7633 6.12983 30.7399 6.16523C30.6469 6.30536 30.5311 6.47968 28.9474 8.59442C28.5509 9.12395 28.3529 9.81365 28.3898 10.5368C28.5302 13.2848 28.193 15.7711 27.3871 17.9264C26.6249 19.9655 25.4437 21.715 23.8769 23.1263C21.9379 24.8724 19.4655 26.068 16.528 26.6793C15.0871 26.9791 13.5397 27.1295 11.9382 27.1295Z" fill="#5F7B87"/>
</svg>
